# xmcd
#
# Track frame offsets: 
#        150
#        18641
#        42539
#        54437
#        74159
#        93752
#        115476
#        134586
#        151129
#        174864
#        195091
#        205505
#
# Disc length: 3168 seconds
#
# Revision: 0
# Processed by: cddbd v1.5.2PL0 Copyright (c) Steve Scherf et al.
# Submitted via: ExactAudioCopy v1.3
#
DISCID=9f0c5e0c
DTITLE=Freddie Fuller - Down The Road
DYEAR=2018
DGENRE=Country
TTITLE0=Down The Road
TTITLE1=Songs Of The Sea
TTITLE2=Friends For Life
TTITLE3=Papa's Lullabye
TTITLE4=Hearts Of A Same Kind
TTITLE5=Cocoon
TTITLE6=Your Calling Is Calling
TTITLE7=Something Worth Dying For
TTITLE8=Power Of Now
TTITLE9=Soldier's Prayer
TTITLE10=My Mama's Gospel Songs
TTITLE11=You Put Your Life On The Line
EXTD=
EXTT0=
EXTT1=
EXTT2=
EXTT3=
EXTT4=
EXTT5=
EXTT6=
EXTT7=
EXTT8=
EXTT9=
EXTT10=
EXTT11=
PLAYORDER=
